<svg id="Layer_1" data-name="Layer 1" xmlns="http://www.w3.org/2000/svg" viewBox="0 0 50 50"><defs><style>.cls-1{fill:#092f33;}.cls-2{fill:#f8b81b;}</style></defs><title>Artboard 1</title><circle class="cls-1" cx="25" cy="25" r="25"/><path class="cls-2" d="M25.08,14.19c3.49,0,3.91,0,5.29.08a7.23,7.23,0,0,1,2.43.45,4.33,4.33,0,0,1,2.48,2.48,7.25,7.25,0,0,1,.45,2.43c.06,1.38.08,1.79.08,5.29s0,3.91-.08,5.29a7.22,7.22,0,0,1-.45,2.43,4.33,4.33,0,0,1-2.48,2.48,7.23,7.23,0,0,1-2.43.45c-1.38.06-1.79.08-5.29.08s-3.91,0-5.29-.08a7.2,7.2,0,0,1-2.43-.45,4.33,4.33,0,0,1-2.48-2.48,7.24,7.24,0,0,1-.45-2.43c-.06-1.38-.08-1.79-.08-5.29s0-3.91.08-5.29a7.23,7.23,0,0,1,.45-2.43,4.33,4.33,0,0,1,2.48-2.48,7.23,7.23,0,0,1,2.43-.45c1.38-.06,1.79-.08,5.29-.08m0-2.36c-3.55,0-4,0-5.39.08a9.62,9.62,0,0,0-3.17.61,6.69,6.69,0,0,0-3.83,3.83,9.6,9.6,0,0,0-.61,3.18C12,20.92,12,21.36,12,24.92s0,4,.08,5.39a9.63,9.63,0,0,0,.61,3.18,6.69,6.69,0,0,0,3.83,3.83,9.6,9.6,0,0,0,3.18.61c1.4.06,1.84.08,5.39.08s4,0,5.39-.08a9.6,9.6,0,0,0,3.18-.61,6.69,6.69,0,0,0,3.83-3.83,9.63,9.63,0,0,0,.61-3.18c.06-1.4.08-1.84.08-5.39s0-4-.08-5.39a9.62,9.62,0,0,0-.61-3.18,6.69,6.69,0,0,0-3.83-3.83,9.6,9.6,0,0,0-3.18-.61c-1.4-.06-1.84-.08-5.39-.08Z"/><path class="cls-2" d="M25.08,18.2a6.72,6.72,0,1,0,6.72,6.72A6.72,6.72,0,0,0,25.08,18.2Zm0,11.08a4.36,4.36,0,1,1,4.36-4.36A4.36,4.36,0,0,1,25.08,29.28Z"/><circle class="cls-2" cx="32.07" cy="17.93" r="1.57"/></svg>