<svg id="Layer_1" data-name="Layer 1" xmlns="http://www.w3.org/2000/svg" viewBox="0 0 160.57 103.49"><defs><style>.cls-1{fill:#092f33;}.cls-2{fill:#f8b81b;}</style></defs><title>Artboard 2</title><circle class="cls-1" cx="77.7" cy="30.54" r="30.54"/><path class="cls-2" d="M88.15,37.58a7.42,7.42,0,0,1-5.47,2.7c-3.58,0-6.12-2.18-6.12-5.3,0-2.18,1.49-4,4.25-5.43-1.35-1.42-2.3-2.62-2.3-4.2,0-2.37,1.92-4.07,4.66-4.07s4.47,1.56,4.47,3.82c0,1.86-1.08,3.25-4,4.86l4.63,5a8.31,8.31,0,0,0,1-3.93h1.84a10.25,10.25,0,0,1-1.6,5.35L92.78,40H90.34Zm-5.31,1A5.47,5.47,0,0,0,87,36.32L81.86,30.7c-2.11,1.17-3.25,2.54-3.25,4.12C78.61,37,80.43,38.59,82.84,38.59ZM80.48,25.43c0,1.15.84,2.13,2.06,3.33,2.28-1.23,3.17-2.24,3.17-3.47A2.34,2.34,0,0,0,83.16,23,2.45,2.45,0,0,0,80.48,25.43Z"/><path class="cls-2" d="M75.93,48.23c-5.17,0-8.84-4.08-8.84-9.94s3.68-10,8.84-10a10.6,10.6,0,0,1,6.33,2.2l.64-1a1.06,1.06,0,0,1-.55-.27,2.38,2.38,0,0,1-.72-1,.33.33,0,0,1,0-.28,12.47,12.47,0,0,0-6-1.54c-6.38,0-10.89,4.92-10.89,11.91s4.52,11.87,10.89,11.87a13.18,13.18,0,0,0,7.54-2.49l-1-1.64A10.6,10.6,0,0,1,75.93,48.23Z"/><rect class="cls-2" x="62.62" y="13.94" width="24.99" height="1.97"/><rect class="cls-2" x="68.87" y="20.19" width="12.48" height="2.36" transform="translate(96.48 -53.74) rotate(90)"/><path class="cls-1" d="M14.85,84a13.13,13.13,0,0,0-.17-2,3.62,3.62,0,0,0-.53-1.4,2.29,2.29,0,0,0-1-.83,4.13,4.13,0,0,0-1.63-.28H9.34l0,14a19.51,19.51,0,0,1-.08,2l2.13-.1v1.11h-6V95.7a2,2,0,0,0,1.08-.28,1.34,1.34,0,0,0,.51-.67,2.92,2.92,0,0,0,.15-1V92.55l0-13H4.46a3.14,3.14,0,0,0-1.37.27,2.2,2.2,0,0,0-.91.82A3.89,3.89,0,0,0,1.67,82a10.79,10.79,0,0,0-.16,2h-1l.15-5.42H15.66L15.81,84Z"/><path class="cls-1" d="M26.68,87.09q0-.63,0-1.07a7.74,7.74,0,0,1,.1-.88L25,85.21V84.15h.79a6.73,6.73,0,0,0,.94-.06,3.38,3.38,0,0,0,.66-.16,2.27,2.27,0,0,0,.46-.22,2.7,2.7,0,0,0,.33-.26h.74l0,9.69q0,.2,0,.51t0,.64q0,.33,0,.66t0,.59l1.84-.1v1.08H26.93q-.06-.44-.11-.81T26.75,95a7.55,7.55,0,0,1-.89.76,6.59,6.59,0,0,1-1,.62,6.45,6.45,0,0,1-1.12.42,4.36,4.36,0,0,1-1.14.16,5.48,5.48,0,0,1-1.84-.28,2.92,2.92,0,0,1-1.31-.93A4.36,4.36,0,0,1,18.63,94a11.36,11.36,0,0,1-.26-2.66V86.8q0-.4,0-.81a6.07,6.07,0,0,1,.09-.85l-1.77.07V84.15h.8a6.62,6.62,0,0,0,.93-.06,3.38,3.38,0,0,0,.66-.16,2.27,2.27,0,0,0,.46-.22,2.7,2.7,0,0,0,.33-.26h.74v7.82a10.89,10.89,0,0,0,.15,1.94,4,4,0,0,0,.48,1.37,2,2,0,0,0,.86.8,3.15,3.15,0,0,0,2.25.09,4.09,4.09,0,0,0,.9-.44,5.58,5.58,0,0,0,.79-.63,4.25,4.25,0,0,0,.63-.75V87.09Z"/><path class="cls-1" d="M39.83,84.71a2.52,2.52,0,0,0-1,.18,3.88,3.88,0,0,0-1,.57,5.6,5.6,0,0,0-.91.9,7.13,7.13,0,0,0-.76,1.16l0,6.3c0,.34,0,.64,0,.91a6.1,6.1,0,0,1-.09.83l1.61-.08v1.05H32.47v-.76a1.47,1.47,0,0,0,.9-.23,1.29,1.29,0,0,0,.44-.64,3.52,3.52,0,0,0,.16-1q0-.58,0-1.26V86.78q0-.4,0-.81a6.06,6.06,0,0,1,.09-.84l-1.82.07V84.15h.79A6.19,6.19,0,0,0,34,84.1a2.71,2.71,0,0,0,.61-.16,2,2,0,0,0,.41-.22l.31-.26H36q0,.4.07,1T36.16,86a5.85,5.85,0,0,1,.74-1,6,6,0,0,1,1-.86,5.77,5.77,0,0,1,1.21-.62,3.78,3.78,0,0,1,1.34-.24,2.5,2.5,0,0,1,.68.09,1.57,1.57,0,0,1,.58.29,1.52,1.52,0,0,1,.39.5,1.6,1.6,0,0,1,.15.73,1.27,1.27,0,0,1-.07.39,1.21,1.21,0,0,1-.23.4,1.3,1.3,0,0,1-.39.31,1.26,1.26,0,0,1-.59.13,1.08,1.08,0,0,1-.52-.12,1.27,1.27,0,0,1-.39-.32,1.21,1.21,0,0,1-.23-.45A1.39,1.39,0,0,1,39.83,84.71Z"/><path class="cls-1" d="M45.12,86.8q0-.4,0-.81a6.07,6.07,0,0,1,.09-.85l-1.82.1V84.15a13.44,13.44,0,0,0,1.36-.06,4.51,4.51,0,0,0,.84-.16,2,2,0,0,0,.49-.22,3,3,0,0,0,.33-.26h.74l.06.66q0,.37.06.89a7.21,7.21,0,0,1,.91-.68,7.34,7.34,0,0,1,1-.54,6.51,6.51,0,0,1,1.11-.36,5,5,0,0,1,1.12-.13,3.77,3.77,0,0,1,3.25,1.4,7.36,7.36,0,0,1,1,4.34v4.78c0,.34,0,.64,0,.91a6.1,6.1,0,0,1-.09.83l1.61-.08v1.05H52v-.76a1.47,1.47,0,0,0,.9-.23,1.3,1.3,0,0,0,.44-.64,3.5,3.5,0,0,0,.16-1q0-.58,0-1.26V89.06a6.53,6.53,0,0,0-.73-3.34,2.44,2.44,0,0,0-2.23-1.12,3.24,3.24,0,0,0-.93.14,5.11,5.11,0,0,0-.89.36,4.71,4.71,0,0,0-.8.52,3.94,3.94,0,0,0-.65.65c0,.15,0,.31,0,.48v.52l0,6.55c0,.34,0,.64,0,.91a6,6,0,0,1-.09.83l1.62-.08v1.05H43.58v-.76a1.47,1.47,0,0,0,.9-.23,1.26,1.26,0,0,0,.44-.64,3.68,3.68,0,0,0,.15-1q0-.58,0-1.26Z"/><path class="cls-1" d="M70.75,89l-9,.15A13.31,13.31,0,0,0,62,91.81a6.35,6.35,0,0,0,.75,2.06A3.66,3.66,0,0,0,64,95.18a3.82,3.82,0,0,0,1.93.46,4.83,4.83,0,0,0,1.23-.16A6.51,6.51,0,0,0,68.39,95a5.59,5.59,0,0,0,1.07-.68,4.48,4.48,0,0,0,.81-.85l.63.51a5.81,5.81,0,0,1-1.22,1.36,7.17,7.17,0,0,1-1.44.91,6.71,6.71,0,0,1-1.5.51,7,7,0,0,1-1.4.16,6.38,6.38,0,0,1-2.47-.48,5.71,5.71,0,0,1-2-1.36A6.46,6.46,0,0,1,59.57,93a7.79,7.79,0,0,1-.48-2.82,7.3,7.3,0,0,1,.46-2.59,6.87,6.87,0,0,1,1.31-2.18,6.36,6.36,0,0,1,2-1.52,6.1,6.1,0,0,1,2.64-.56,5.74,5.74,0,0,1,2,.35,4.64,4.64,0,0,1,1.66,1.05,4.91,4.91,0,0,1,1.13,1.77A6.91,6.91,0,0,1,70.75,89Zm-5.18-4.66a3.56,3.56,0,0,0-2.48.88A4.72,4.72,0,0,0,61.8,88h6.53a6.1,6.1,0,0,0-.15-1.34,3.82,3.82,0,0,0-.48-1.2,2.68,2.68,0,0,0-.86-.86A2.35,2.35,0,0,0,65.57,84.32Z"/><path class="cls-1" d="M80.39,84.71a2.52,2.52,0,0,0-1,.18,3.88,3.88,0,0,0-1,.57,5.6,5.6,0,0,0-.91.9,7.13,7.13,0,0,0-.76,1.16l0,6.3c0,.34,0,.64,0,.91a6.1,6.1,0,0,1-.09.83l1.61-.08v1.05H73v-.76a1.47,1.47,0,0,0,.9-.23,1.29,1.29,0,0,0,.44-.64,3.52,3.52,0,0,0,.16-1q0-.58,0-1.26V86.78q0-.4,0-.81a6.06,6.06,0,0,1,.09-.84l-1.82.07V84.15h.79a6.19,6.19,0,0,0,.91-.06,2.71,2.71,0,0,0,.61-.16,2,2,0,0,0,.41-.22l.31-.26h.74q0,.4.07,1T76.72,86a5.85,5.85,0,0,1,.74-1,6,6,0,0,1,1-.86,5.77,5.77,0,0,1,1.21-.62A3.78,3.78,0,0,1,81,83.3a2.5,2.5,0,0,1,.68.09,1.57,1.57,0,0,1,.58.29,1.52,1.52,0,0,1,.39.5,1.6,1.6,0,0,1,.15.73,1.27,1.27,0,0,1-.07.39,1.21,1.21,0,0,1-.23.4,1.3,1.3,0,0,1-.39.31,1.26,1.26,0,0,1-.59.13A1.08,1.08,0,0,1,81,86a1.27,1.27,0,0,1-.39-.32,1.21,1.21,0,0,1-.23-.45A1.39,1.39,0,0,1,80.39,84.71Z"/><path class="cls-1" d="M103.79,89.69a6.43,6.43,0,0,1-.09,1.25,7.24,7.24,0,0,1-.44,1.57l.61.55.68.61a13.28,13.28,0,0,0,2,1.53,2.89,2.89,0,0,0,1.23.49v.85H105.4a3,3,0,0,1-1.06-.48,16.36,16.36,0,0,1-2.13-1.63,7.21,7.21,0,0,1-.95,1,5.68,5.68,0,0,1-1.21.8,7.22,7.22,0,0,1-1.51.54,7.88,7.88,0,0,1-1.85.2,8.88,8.88,0,0,1-2.2-.28,5.72,5.72,0,0,1-1.93-.88,4.52,4.52,0,0,1-1.36-1.56,4.81,4.81,0,0,1-.52-2.32A4.31,4.31,0,0,1,91,90.36,5,5,0,0,1,91.77,89,6.61,6.61,0,0,1,93,87.82a9.07,9.07,0,0,1,1.67-.93,14.72,14.72,0,0,1-.89-1.22,7.34,7.34,0,0,1-.61-1.15,5.61,5.61,0,0,1-.34-1.14,6.32,6.32,0,0,1-.11-1.17,3.9,3.9,0,0,1,.37-1.66,3.76,3.76,0,0,1,1-1.27,4.51,4.51,0,0,1,1.5-.81,6,6,0,0,1,1.9-.29,5.33,5.33,0,0,1,1.76.28,4,4,0,0,1,1.35.76,3.47,3.47,0,0,1,.86,1.15,3.29,3.29,0,0,1,.31,1.41,4.25,4.25,0,0,1-.23,1.38,4.37,4.37,0,0,1-.73,1.3,7.21,7.21,0,0,1-1.3,1.24,12.8,12.8,0,0,1-2,1.2q.49.53,1,1.06L99.63,89l.53.56.58.58.69.67.88.83a6.7,6.7,0,0,0,.18-.86,5.77,5.77,0,0,0,.06-.76,4.53,4.53,0,0,0-.09-.88,2.56,2.56,0,0,0-.31-.81,1.8,1.8,0,0,0-.59-.61,1.88,1.88,0,0,0-.94-.26v-.85h4.48v1.05L103,87.57a2.06,2.06,0,0,1,.59.88A4.13,4.13,0,0,1,103.79,89.69ZM100.66,93,97.6,90q-1.31-1.29-2.24-2.36a3.72,3.72,0,0,0-1,.87,4.85,4.85,0,0,0-.65,1,4.69,4.69,0,0,0-.34,1.06,4.88,4.88,0,0,0-.1.91,4.65,4.65,0,0,0,.33,1.82,3.71,3.71,0,0,0,.85,1.27,3.54,3.54,0,0,0,1.2.76,4.32,4.32,0,0,0,1.39.28,5.7,5.7,0,0,0,1.46-.11,5.05,5.05,0,0,0,1.2-.41,4.28,4.28,0,0,0,1-.64,5.43,5.43,0,0,0,.75-.81Q101,93.37,100.66,93ZM94.91,82a3.94,3.94,0,0,0,.16,1.1,5.54,5.54,0,0,0,.44,1.08,8.85,8.85,0,0,0,.66,1.06,11.12,11.12,0,0,0,.83,1,6.54,6.54,0,0,0,2.13-2.1,4.48,4.48,0,0,0,.69-2.29,3.85,3.85,0,0,0-.16-1.14,2.65,2.65,0,0,0-.47-.9,2.13,2.13,0,0,0-.76-.59,2.45,2.45,0,0,0-1-.21,2.5,2.5,0,0,0-1,.19,2.08,2.08,0,0,0-.78.58,2.8,2.8,0,0,0-.51.94A4,4,0,0,0,94.91,82Z"/><path class="cls-1" d="M124.57,79.22a5.78,5.78,0,0,0-2.56.58,6.24,6.24,0,0,0-2.08,1.65,8,8,0,0,0-1.4,2.6,10.66,10.66,0,0,0-.51,3.41,10.24,10.24,0,0,0,.24,2.28,8.79,8.79,0,0,0,.69,2A7.63,7.63,0,0,0,120,93.35a6.71,6.71,0,0,0,1.39,1.22,6.4,6.4,0,0,0,1.64.77,6.21,6.21,0,0,0,1.83.27,7.58,7.58,0,0,0,1.67-.19,7.3,7.3,0,0,0,1.6-.56,7.5,7.5,0,0,0,1.45-.93,6.93,6.93,0,0,0,1.2-1.26l.66.54a9,9,0,0,1-1.77,1.86,9.18,9.18,0,0,1-1.9,1.15,8.06,8.06,0,0,1-1.88.58,10.33,10.33,0,0,1-1.71.16,8.66,8.66,0,0,1-3.53-.71,8.37,8.37,0,0,1-2.75-1.93,8.78,8.78,0,0,1-1.79-2.89,9.86,9.86,0,0,1-.64-3.57,11.91,11.91,0,0,1,.24-2.39,10.37,10.37,0,0,1,.74-2.26,9.65,9.65,0,0,1,1.23-2,8,8,0,0,1,1.73-1.6,8.22,8.22,0,0,1,2.23-1.06,9.81,9.81,0,0,1,5.45,0,9.43,9.43,0,0,1,2.45,1.18l-.12-1.38h1.39v5.95h-.93a7.07,7.07,0,0,0-.57-2.15,5.12,5.12,0,0,0-1.11-1.6,4.64,4.64,0,0,0-1.61-1A5.79,5.79,0,0,0,124.57,79.22Z"/><path class="cls-1" d="M139.73,83.3a6.45,6.45,0,0,1,2.53.49,6.34,6.34,0,0,1,2,1.37,6.44,6.44,0,0,1,1.38,2.06,6.56,6.56,0,0,1,.51,2.59,7.81,7.81,0,0,1-.49,2.79,7.13,7.13,0,0,1-1.36,2.27,6.43,6.43,0,0,1-2.05,1.52,5.91,5.91,0,0,1-2.55.56,6.54,6.54,0,0,1-2.52-.48,6.18,6.18,0,0,1-3.41-3.4,6.72,6.72,0,0,1-.5-2.62,7.93,7.93,0,0,1,.49-2.82,7.08,7.08,0,0,1,1.36-2.27,6.24,6.24,0,0,1,2-1.5A6,6,0,0,1,139.73,83.3Zm0,1a3.2,3.2,0,0,0-1.73.45,3.66,3.66,0,0,0-1.18,1.2,5.62,5.62,0,0,0-.68,1.73,9.3,9.3,0,0,0-.22,2,10.91,10.91,0,0,0,.24,2.32,6.93,6.93,0,0,0,.75,2,4.23,4.23,0,0,0,1.26,1.4,3.33,3.33,0,0,0,3.48.07,3.54,3.54,0,0,0,1.13-1.21,5.54,5.54,0,0,0,.62-1.72,10.36,10.36,0,0,0,.19-2,12.3,12.3,0,0,0-.21-2.28,7.27,7.27,0,0,0-.68-2,4.2,4.2,0,0,0-1.2-1.44A2.84,2.84,0,0,0,139.73,84.28Z"/><path class="cls-1" d="M150.34,102.14a.7.7,0,0,0,.29.06,1.31,1.31,0,0,0,.58-.19,2.13,2.13,0,0,0,.72-.82,14.74,14.74,0,0,0,.78-1.68q.46-1.12,1-2.69-4.34-9.3-4.58-9.86t-.39-1q-.16-.42-.25-.74a4.94,4.94,0,0,1-.13-.53l-1.24.06V83.72h5.31v.76h-.11a1.6,1.6,0,0,0-.82.24.84.84,0,0,0-.34.57,2.55,2.55,0,0,0,.08,1q.14.59,3.52,7.68,2.67-7.78,2.83-8.17c.11-.27.22-.5.33-.7a1.18,1.18,0,0,1,.29-.4l-1.77.1V83.72h4v.76a2.89,2.89,0,0,0-.82.48,3.06,3.06,0,0,0-.61.71,6.58,6.58,0,0,0-.49,1q-.23.54-3.67,10.13-.59,1.61-1.08,2.87a12.77,12.77,0,0,1-1,2.11,4.41,4.41,0,0,1-1.16,1.29,2.51,2.51,0,0,1-1.48.45,2.89,2.89,0,0,1-.75-.09,1.81,1.81,0,0,1-.61-.29,1.36,1.36,0,0,1-.41-.49,1.47,1.47,0,0,1-.15-.68,1.44,1.44,0,0,1,.08-.46,1.23,1.23,0,0,1,.22-.4,1.1,1.1,0,0,1,.35-.28,1,1,0,0,1,.46-.11,1,1,0,0,1,.51.11,1,1,0,0,1,.33.29,1.12,1.12,0,0,1,.17.37,1.4,1.4,0,0,1,0,.34s0,.11,0,.17A.93.93,0,0,1,150.34,102.14Z"/></svg>