<svg id="Layer_1" data-name="Layer 1" xmlns="http://www.w3.org/2000/svg" viewBox="0 0 50 50"><defs><style>.cls-1{fill:#092f33;}.cls-2{fill:#fff;}</style></defs><title>Artboard 1</title><circle class="cls-1" cx="25" cy="25" r="25"/><g id="project-page-template"><g id="Desktop-HD"><g id="Group-2"><g id="twitter-01"><g id="Layer_1-2" data-name="Layer 1"><path id="Shape" class="cls-2" d="M39.74,16.86a12.08,12.08,0,0,1-3.47,1,6.06,6.06,0,0,0,2.66-3.35,12.11,12.11,0,0,1-3.84,1.47,6.05,6.05,0,0,0-10.3,5.52,17.17,17.17,0,0,1-12.46-6.32,6.05,6.05,0,0,0,1.87,8.07,6,6,0,0,1-2.74-.76v.08a6.05,6.05,0,0,0,4.85,5.93,6.07,6.07,0,0,1-2.73.1,6.05,6.05,0,0,0,5.65,4.2,12.13,12.13,0,0,1-7.51,2.59,12.3,12.3,0,0,1-1.44-.08A17.11,17.11,0,0,0,19.53,38c11.12,0,17.2-9.21,17.2-17.2q0-.39,0-.78a12.29,12.29,0,0,0,3-3.13Z"/></g></g></g></g></g></svg>